<svg width="314" height="761" viewBox="0 0 314 761" fill="none" xmlns="http://www.w3.org/2000/svg">
<g filter="url(#filter0_f_8_1950)">
<path fillRule="evenodd" clipRule="evenodd" d="M-66.5 4C141.435 4 310 172.565 310 380.5C310 588.435 141.435 757 -66.5 757C-274.435 757 -443 588.435 -443 380.5C-443 172.565 -274.435 4 -66.5 4ZM-66.5 131C-204.295 131 -316 242.705 -316 380.5C-316 518.295 -204.295 630 -66.5 630C71.295 630 183 518.295 183 380.5C183 242.705 71.295 131 -66.5 131Z" fill="url(#paint0_linear_8_1950)"/>
</g>
<defs>
<filter id="filter0_f_8_1950" x="-447" y="0" width="761" height="761" filterUnits="userSpaceOnUse" color-interpolation-filters="sRGB">
<feFlood flood-opacity="0" result="BackgroundImageFix"/>
<feBlend mode="normal" in="SourceGraphic" in2="BackgroundImageFix" result="shape"/>
<feGaussianBlur stdDeviation="2" result="effect1_foregroundBlur_8_1950"/>
</filter>
<linearGradient id="paint0_linear_8_1950" x1="-443" y1="757" x2="-443" y2="4" gradientUnits="userSpaceOnUse">
<stop stop-color="#FAFBFB" stop-opacity="0.01"/>
<stop offset="1" stop-color="#F3F7FC"/>
</linearGradient>
</defs>
</svg>
